<svg xmlns="http://www.w3.org/2000/svg" viewBox="0 0 219.66 46.24"><g id="圖層_2" data-name="圖層 2"><g id="圖層_1-2" data-name="圖層 1"><path d="M219.66,37.56l-1.7.78c.33.82,1.45.71,1.58,1.59a1.08,1.08,0,0,1-.17.19c-.24.18-.78-.51-.83.3,0,.32-.82,0-.6.68a.77.77,0,0,1-.44.26c-.45,0-.9-.12-1.36-.19-.49.48.09.93.12,1.51L215,42.14c.18,1.15-1.07,1-1.45,1.77l-1-1.23c-.52.32-.94.33-1.26-.39a11.85,11.85,0,0,0-1.18-1.77,5.13,5.13,0,0,0-.67-1,11.08,11.08,0,0,0-1.39-1.06c-.22-.14-.58-.13-.73-.31A21.22,21.22,0,0,0,203,34.44c-1.2-.8-2.51-1.41-3.77-2.12l-4.92-2.77c-.68.15-.64.73-.53,1.21.32,1.41.35,1.4-.13,2.49,0,.07-.1.17-.08.2.71.78-.2,1.43-.19,2.24l.56-.28c.05.8.25,1.57-.75,2-.2.08-.28.52-.36.81-.13.45-.3.83-.84.89a.66.66,0,0,0-.44.16,1.16,1.16,0,0,1-1.51.31,2.12,2.12,0,0,1-1.31-1.62,13.88,13.88,0,0,1,0-5.14c.85-3.49,1.36-7,1.93-10.59.17-1,.16-2.06.31-3.09a14.08,14.08,0,0,0-.2-3.09,21.87,21.87,0,0,1-.22-2.81,3.12,3.12,0,0,0-.46-1.66,3.26,3.26,0,0,0-1.33-.93,14.13,14.13,0,0,0-1.67-.66,1.25,1.25,0,0,0-.31,0,3.94,3.94,0,0,1-1.82,1.88,3.7,3.7,0,0,1-2.05.27,15.28,15.28,0,0,0-4.2.55,6.28,6.28,0,0,1-3.8-.41c-.76,1.28-1.9.48-2.88.41a4,4,0,0,0-1.47,0,12.1,12.1,0,0,1-2.5,0,10.83,10.83,0,0,0-.33,1.62c-.12,1.71-.18,3.43-.25,5.15,0,.47.19.76.72.72.28,0,.69-.12.83,0,.59.6,1.33.32,2,.39a25.26,25.26,0,0,0,2.63,0c0-.45.09-.77.66-.86,1.29-.21,2.64,0,3.87-.71A7.15,7.15,0,0,1,180,18.7c.34-.08.64-.3,1-.35.55-.08.44.27.25.7a1.63,1.63,0,0,1,1.61.76.9.9,0,0,1-.09,1.42c-.29.24-.09.51-.14.6a4.31,4.31,0,0,1-1,1.15c-.19.15-.54.11-.81.15-.55.09-1.19-.15-1.58.52-.06.11-.37.09-.57.1a4.28,4.28,0,0,0-1.31.25,7.08,7.08,0,0,1-1.54.11c-.54.06-1.07.19-1.65.3-.26-.12-.74-.5-.93-.39-1,.58-2,.05-2.92.11s-2,0-3.15,0L167,25.39c.65,0,1,.54,1.71.23.35-.16,1,.2,1.44.42,1.41.69,2.78,1.45,4.19,2.13.71.34,1.48.56,2.2.88.44.19.86.47,1.46.81h1.54c.26,1.07.56,2.07.76,3.1a1.11,1.11,0,0,1-1,1.39c-.54,0-.52.48-.86.59-1.19.4-2.37.86-3.56,1.23-.43.13-.88-.39-1.37,0s-1,.64-1.52,1a2.33,2.33,0,0,0-2.45.87,1.87,1.87,0,0,1-2.13,1c-.82-.15-1.68-.12-2.51-.24a2.47,2.47,0,0,1-2.27-2.53,11.23,11.23,0,0,1,.5-4,16.49,16.49,0,0,0,.4-2.83c.12-.75.28-1.49.43-2.3-1.13-.36-2.23-.7-3.32-1.07a2.9,2.9,0,0,1-1.86-1.69c.46-.69,1.44-.92,1.28-1.79l1.53-.5-.78-.24a5.1,5.1,0,0,1,3.17-.86c1.07-.8.73-1.82.82-2.74.19-1.79.32-3.59.48-5.36a5.05,5.05,0,0,0-2.88-.67,29,29,0,0,1-3.08-.24,3.88,3.88,0,0,0,.41,1,3.8,3.8,0,0,1,.62,3.31,24.21,24.21,0,0,1-.82,3.36c-.13.43-.16,1.11-.95,1,0,0-.14.14-.13.18.4.79-.36,1.11-.7,1.55a4.1,4.1,0,0,1-1.21.66c.17.61-.25,1.1-.83,1.52a5.65,5.65,0,0,0-1.46,1.78,14.76,14.76,0,0,1-2.39,2.68c-.48.46-.94.93-1.39,1.42a19.31,19.31,0,0,1-1.72,1.45,5.79,5.79,0,0,1-.89,1.26A34.37,34.37,0,0,0,144,37.3c-.84,1-1.79,1.91-2.63,2.91A19.1,19.1,0,0,0,140.23,42c-.37.56-.75,1.11-1.16,1.65-.28.37-.62.7-1,1.16a1.74,1.74,0,0,0-.65.09c-.32.14-.58.46-.91.56s-.65-.11-.95,0a4.37,4.37,0,0,0-1,.53c-.8-.77-1.53.73-2.55.22L131.82,45l-1,.2a6.42,6.42,0,0,1-.18-1.32,10.34,10.34,0,0,0-.41-2.82,5,5,0,0,1,.69-3.74,11.77,11.77,0,0,1,3.42-3.84,1.71,1.71,0,0,0,.79-1.5,14.75,14.75,0,0,0-.33-3.69c-.55-2.38-1.13-4.76-1.51-7.16a33,33,0,0,0-1.87-6.43c-.1-.25-.21-.6-.42-.69-.66-.3-.84-.9-1.15-1.59l1.54-1.65-.31-.76a1.64,1.64,0,0,1,1.53-.84c4-.23,8.08-.54,12.12-.73A32.44,32.44,0,0,1,154,9.51a23.07,23.07,0,0,1,3.11,1.27c.44.17,1,.5,1.34.38a3,3,0,0,0,1.3-1.09c.29-.41.41-.67.76-.1,0,0,.15.06.22,0,1.08-.31,2.21.33,3.27-.21.09-.05.26,0,.38.06.77.33,1.2.25,1.28-.55.11-1,1-1.18,1.5-1.76.17-.21.72-.12.84.34a3.67,3.67,0,0,1,.12.94c0,.38,0,.76,0,1.28.34-.17.54-.28.74-.36a4.08,4.08,0,0,1,1.46-.47,12.53,12.53,0,0,0,1.76-.15C174.14,9,176,8.32,178,8L185.61,7a3.17,3.17,0,0,0,.64-.24l-.56-.87,1.07.38-.18-.77s.09-.08.15-.09.18.08.23,0c1.19-.68,2,.33,3,.64.42.14.81.35,1.23.47a30.7,30.7,0,0,0,6,1.47,4.13,4.13,0,0,1,.55.21,55.43,55.43,0,0,0,5.88,1.61,25.59,25.59,0,0,1,4.5,1.44A14.88,14.88,0,0,1,210,12a13.07,13.07,0,0,1,1.33.9c.42-.31.92-.06,1.25.42.59.86,1.37,1.66,1.2,2.85a2.71,2.71,0,0,0,.43,1.72c.26.45.42.87-.3,1.1a.71.71,0,0,0-.35.56,2.57,2.57,0,0,1-1.47,2.06,28.35,28.35,0,0,1-7.65,3.74l1.14.64c.25.13.52.23.76.37,1.44.82,2.59,2.06,4.1,2.83.69.36,1.13,1.28,1.94,1.67a1.67,1.67,0,0,0,.75.29,1.92,1.92,0,0,1,1.62.9c.67.83,1.22,1.78,2,2.54a6,6,0,0,0,1.84,1.54C219,36.34,219.31,37.09,219.66,37.56ZM161,24.44l-.62-.39-.42.79L160,25l.94-.61c-.19.37-.18.66.4.84l.41-1.21ZM139.28,13.05a3,3,0,0,0-.95,2c0,.72-.35,1.44-.32,2.15.05,1.52.32,3,.37,4.56.08,2.22-.36,4.47.44,6.64.08.21,0,.48,0,.72s.09.45.18.89c5.33-5.06,11.33-9.11,16.16-14.62a21.88,21.88,0,0,0-8.24-2,13.73,13.73,0,0,1-1.73-.33,3.06,3.06,0,0,1-1,.27c-.29,0-.47-.39-.89,0s-.77-.05-1.19-.3-1.07.5-1.34.33C140.23,13,139.71,13.31,139.28,13.05Zm55.53,7.08a1.33,1.33,0,0,0,.4,0l9.36-3.43.57-.2-.21-.35c-1.37-.26-2.62-.85-4-1.19-1.83-.45-3.6-1.18-5.4-1.8a.58.58,0,0,1-.21-.1,1.92,1.92,0,0,0-1.75-.25c.11,2.11.22,4.16.33,6.28C194.86,18.82,194.38,19.79,194.81,20.13ZM167.2,28.32c-.23.59-.44,1-.58,1.47s-.46,1.11-.27,1.36c.55.75.06,1.27-.16,1.85-.38,1,0,1.48,1,1.29a2.23,2.23,0,0,0,.9-.52,4.15,4.15,0,0,1,1.86-.9,3.44,3.44,0,0,0,2.55-1.62A28,28,0,0,0,167.2,28.32ZM136.14,16.84h.3a11.76,11.76,0,0,0,.18-3.17l-1.39.09Zm27.62,7.74-1-.69-.64.54.75.86Zm7.84,4c.63.09,1,.91,2,.62C172.81,28.81,172.36,28.27,171.6,28.57ZM147.65,9.22l0-.26h-1.15V9ZM144,9.05l0-.11c-.23,0-.47,0-.7,0a3,3,0,0,0-.52.06l0,.1Zm-11.89.55,0,.22.91-.07s0-.12,0-.24Zm2.61-.1V9.44H134v.09Z"/><path d="M85.12,2.09l1.11-.84.58.62c.57.56,1.13,1.1,1,2a13.43,13.43,0,0,0,0,1.42,2.38,2.38,0,0,1-.21.92,6.81,6.81,0,0,0-.72,2.88c.38.1.78.21,1.18.3a5.33,5.33,0,0,1,2.6,1.85c.47.51,1,.94,1.5,1.48a7.11,7.11,0,0,1,1.38,3.79,15.68,15.68,0,0,1-.16,6.18c-.17.56-.37,1.12-.57,1.67-.26.74-.53,1.46-.82,2.23.18.4.4.85.57,1.31s0,.77-.51.75a2.2,2.2,0,0,0-1,.09l.68.56-1.16.57.46.76-2-.12.39.59h-1a1.1,1.1,0,0,0-.21.17,15.74,15.74,0,0,1-5,4.54,14,14,0,0,1-8.23,1.63,13.71,13.71,0,0,1-5.73-2,3.59,3.59,0,0,1-1.79-2c-.19-.64-.43-1.27-.64-1.9l0,0,.56.4c0,1,.72,1.47,1.33,2.18A3.51,3.51,0,0,0,67.28,32c-.38-1.34-.79-2.67-1.14-4s-.69-2.94-1.06-4.54l.79.16c-.15-.35-.21-.8-.37-.84-.58-.15-.59-.58-.61-1,0-.91,0-1.83,0-2.74,0-.2,0-.4-.07-.62a2,2,0,0,0-1.68.94,6.22,6.22,0,0,1-.89,1c-.19.18-.53.45-.65.39-.53-.27-1,.51-1.61,0-.38-.34-.2-.73-.49-1.09a2.22,2.22,0,0,1-2.31-1.07,1.61,1.61,0,0,1-.24-1.66,8.21,8.21,0,0,1,3.77-4.45,41,41,0,0,1,6.12-3.3,2.1,2.1,0,0,1,.56-.2c.61,0,.84-.33.9-.9a.77.77,0,0,1,1-.77,3.8,3.8,0,0,1-.32-.8c0-.24,0-.67.09-.72.63-.28.61-.88.77-1.38.22-.68.39-1.38.61-2.15l1,.23L70.09,4.92,71,6.05c.49-.69.49-.69.44-1.92a4.42,4.42,0,0,0,1-.56c.36-.36.34-.78-.23-1,.3-.5.55-.9.79-1.32s.55-.67,1.17,0L74,.37,75.37,0c1.15.5,1.2,1.68,1.48,2.8.42-.23.75-.44,1.09-.6,2-1,3.49-.15,3.79,2,0,.15.06.29.11.56a7.1,7.1,0,0,0,1.52-1.93c.23-.38.48-.74.71-1.12a1,1,0,0,1,1.29-.52c-.07.3-.15.59-.22.88l-.63.8.25.14ZM74.86,25.47c.47-.65,1-.41,1.5-.38a18.84,18.84,0,0,0,3.49.26,11.71,11.71,0,0,1,3.3.29c1.48.23,2.14,0,2.82-1.43a6.34,6.34,0,0,1,.37-.62A7.81,7.81,0,0,0,87.5,19.1a3.75,3.75,0,0,0-.14-.7c-1.79.74-3.52,1.45-5.24,2.14a2.45,2.45,0,0,1-2.43,0l-.6-1.94-.65-.15.6-.78-.77-.09a7.29,7.29,0,0,1,2.8-2c1-.45,2-1,3.16-1.58-3.51-.84-6.82-1.17-10.29-.06a11.44,11.44,0,0,1,.92.9,3.93,3.93,0,0,1,.64,1,3.42,3.42,0,0,1,.33,1.41c0,.57-.62,1-.6,1.63-.73.21-1.2,1-2.1.9-.25,0-.54.24-.86.39l-4.41-4.1a2.75,2.75,0,0,0-.62.88A8,8,0,0,0,67,19a42.74,42.74,0,0,0,.83,6.17c.08.46.46.88.46,1.33a4.7,4.7,0,0,0,1.21,3.06,2.16,2.16,0,0,1,.45,1.19,1.93,1.93,0,0,0,.85,1.41,11.72,11.72,0,0,0,3.32.66,29,29,0,0,0,3.2-.27c2.12-.12,3.46-1.59,4.94-2.82.1-.08.09-.29.15-.49l-1.15-.32c-.36.64-.84.76-.84.38,0-.69-.47-.66-.85-.75-.93-.21-1.88-.35-2.82-.55-.57-.12-1.14-.27-1.87-.45.43-.51-.13-1.39.86-1.36Z"/><path d="M100.1,33c-.62-.59-.66-1.39-.95-2.4l.67.56c.14-1.1,0-1.51-.87-2,.32-.36.32-.36.15-2h-.61c-.11-.47-.22-.91-.3-1.37,0-.12.07-.36.14-.37a.4.4,0,0,0,.22-.71C97.7,24,98,23,97.78,22.07l.25-.19.15.54.21-.11-.29-1.53-.28.58a9.6,9.6,0,0,0-.19-2.73,1.32,1.32,0,0,1,.08-.71c.49-1.19.13-2.45.33-3.62s-.17-2,0-3,.23-2.07.41-3.09A7.09,7.09,0,0,1,99,6.93c.4.08.48.86,1,.47a1.37,1.37,0,0,1,.51.58,4.53,4.53,0,0,1,.27,1.53,43,43,0,0,0,.35,8.49c.25,1.95.68,3.88.84,5.84.09,1.11.58,2.08.75,3.15a3.82,3.82,0,0,0,.39.76c.19-1,.38-1.68.48-2.4.13-1,.21-2,.31-3,.07-.76.14-1.51.2-2.27a2.84,2.84,0,0,0,0-1,4.57,4.57,0,0,1,.61-3.34c.24-.5.91-.81,1.42-1.16s1.12-.66,1.77-1l.91.57.64-.43c.14.08.28.1.34.19a4.33,4.33,0,0,1,.4.73,31.42,31.42,0,0,1,1.85,6.82c.32,2.09.78,4.16,1.19,6.24a3.79,3.79,0,0,0,.44.83c.25-.72.4-1.3.65-1.83s.61-.81.82-1.25a18,18,0,0,0,1.26-4.77,42.39,42.39,0,0,1,.9-5c.09-.29-.08-.65,0-.95.55-2.39.56-4.92,1.89-7.09.28-.45.28-1.25,1.16-1a2.25,2.25,0,0,1,1.3-1.14c.64-.17,1.26-.41,1.89-.64.31-.12.61-.27,1-.45l.59,1.35,1.5-.8a4.44,4.44,0,0,1,.17,1c0,.39-.34,1-.2,1.12.52.42-.1.72,0,1.13l.88.31c0,.08,0,.2,0,.31,0,.3-.23.65-.13.89a2.55,2.55,0,0,1-.21,2.16,4.26,4.26,0,0,0-.59,2.55,6.8,6.8,0,0,1-.41,2.39c-.54,2.25-1,4.52-1.69,6.72a23.77,23.77,0,0,1-2.65,6.14c-.94,1.42-1.68,3-2.76,4.33a6.86,6.86,0,0,1-1.48,1.18c-.35.25-.74.44-1.12.66-.07,0-.14.14-.2.13-1.39-.26-2.52.77-3.93.72a4.45,4.45,0,0,1-4.06-2.31c-.24-.41-.48-.81-.77-1.32-.22.32-.33.52-.48.7s-.42.69-.71.79c-1.23.41-2.49.75-3.75,1.07a.71.71,0,0,1-.88-.43c-.16-.31-.55-.51-.84-.75l0,0h.63l-1.3-2.54L100.07,33Z"/><path d="M28.8,19.14c.05-.61.12-1.17.86-1.13.16-2.36.31-4.67.47-7a5.75,5.75,0,0,1,.14-.83c.31-1.51.62-1.8,2.31-2.08.46,1-.14,2.07,0,3a29.14,29.14,0,0,1,.21,3.06c.11,1,.27,2,.41,3.11a19.9,19.9,0,0,0,5.61.89l-.06.78c.21-.07.5-.13.5-.18,0-.84.63-.95,1.1-.79,1.18.41,2.31-.14,3.48,0a21.4,21.4,0,0,0,3.72-.22c.2-3-.37-6,.51-8.95l1.52.16.17-.74.44.51.47-.62s.12,0,.15.09c1.07,1.64,1.31,3.54,1.71,5.41a9.53,9.53,0,0,0,1.18,2.34c.33.63.66,1.26,1,1.88.19.34.42.66.67,1-.25.66-.93,1.31-.31,2.17.07.09-.11.49-.27.61-.51.36-.4.81-.29,1.29.69,3.13,1.38,6.26,2,9.39.11.53.31,1.11-.17,1.59.22.94-.46,1.51-1,2-.31.32-.26.65-.37,1l-1.48-.26c.41.55.17.85-.28,1.12-.15-.17-.31-.33-.45-.52s0-.83-.49-.68-.39-.33-.7-.37c-1-.1-1.26-.9-1.62-1.64a13.49,13.49,0,0,1-.87-4.29c-.26-1.74-.46-3.48-.64-5.22a1.42,1.42,0,0,0-.9-1.29c-.56-.18-1.24-.41-1.82.24L45,23.33,45.5,23c-.89-.44-.89-.44-1.68.31a1.63,1.63,0,0,0-2.33-.42,3,3,0,0,1-1.41.14c-1.14-.05-2.28-.13-3.42-.25a2.72,2.72,0,0,1-.85-.36c-.42-.2-.82-.41-1.5-.75.12.94.15,1.59.3,2.22.23.95.57,1.88.83,2.82.07.26,0,.55.08.81a5.14,5.14,0,0,0,.26,1.1A6.93,6.93,0,0,1,36,30.67c0,.45.16.89.18,1.34.07,1.22.48,2.5-.65,3.52-.57.53-1.06,1.15-1.65,1.79a10.6,10.6,0,0,0-2.52-1.88c-.26-.13-.41-.59-.48-.92a21.25,21.25,0,0,1-.44-2.73c-.27-3.55-.52-7.11-.71-10.66A3.84,3.84,0,0,0,28.8,19.14Zm11.9-.24,1.62.11C41.67,18.13,41.18,18.9,40.7,18.9Zm-3.24-.42c.58.38.58.38,1.1,0Zm5.57.24v.16h.54v-.16Z"/><path d="M19.63,14.8a3.85,3.85,0,0,0-.69-3.33,2.56,2.56,0,0,0-1.83-1,9,9,0,0,0-3.75.39c-.4.1-.82.69-1.29,0A7.81,7.81,0,0,0,11,11.5l.74.14c-.43.33-.74.61-1.08.84a8.62,8.62,0,0,0-3.4,4c-.55,1.23-1,2.5-1.53,3.75-.3.72-.62,1.44-.92,2.17-.09.21-.23.47-.17.66A38.44,38.44,0,0,1,5,27.16a1.72,1.72,0,0,0,.16.7c.55.78,1.13,1.55,1.74,2.28a1.52,1.52,0,0,0,1.38.57A5.57,5.57,0,0,1,9.78,31c1.43.31,2.76-.2,4.13-.4,1.05-.16,1.85-.88,2.83-1.13,1.82-.48,2.56-2.25,3.94-3.26,1.05-.77,1.79-2,3.07-2.44.36-.14.67-.31,1,.07,0,0,1.08,1.35,1.11,1.4s.17.45.3.49c.67.17.13.57.21.92l1.09-.21L27,27.57l.78.28c-1.09,1.58-2.08,3.18-3.25,4.64a28.34,28.34,0,0,1-3.06,3c-.57.53-1.18,1.1-2.09.87-.1,0-.22.1-.33.14-1.39.49-2.75,1.08-4.18,1.44a11,11,0,0,1-3.09.25,12.9,12.9,0,0,1-5.81-1.31,10.33,10.33,0,0,1-3.62-3.09A19.42,19.42,0,0,1,.55,30.06c-.09-.19,0-.46,0-.7s.09-.49,0-.57c-1-.8-.41-1.9-.51-2.83A14.27,14.27,0,0,1,.3,22.85,27.19,27.19,0,0,1,1.92,17a5.63,5.63,0,0,1,.78-1.14c.23-.34.42-.69.63-1a12.85,12.85,0,0,1,1.87-3c.55-.52,1-1.16,1.59-1.62,2.35-1.81,4.91-3.2,8-3A15.76,15.76,0,0,1,18.3,8a4.34,4.34,0,0,1,2.34,3.66,2.12,2.12,0,0,1-.24.79,1.28,1.28,0,0,0-.13,1.32C20.55,14.25,20.17,14.5,19.63,14.8Zm5.69,15.5-.12-.1-.4.5.14.11Z"/><path d="M170.35,20.27h1.75v.13h-1.72Z"/><path d="M89.85,31.05l.86.18-.06.27-.85-.19Z"/><path d="M100.83,34.43A1.61,1.61,0,0,1,100.1,33l0,0,.73,1.46Z"/><path d="M66.78,31.57l-.4-.68.21-.06c0,.26.11.51.16.77Z"/></g></g></svg>